<svg width="24" height="24" viewBox="0 0 24 24" xmlns="http://www.w3.org/2000/svg">
  <g fill="none" fill-rule="evenodd">
    <path d="M0 0h24v24H0z"/>
    <path d="M4 14.118c0 1.462 3.374 2.647 7.536 2.647M19 5.647c0 1.462-3.358 2.647-7.5 2.647-4.142 0-7.5-1.185-7.5-2.647M19 9.882c0 1.462-3.358 2.647-7.5 2.647-4.142 0-7.5-1.184-7.5-2.647M19.723 18v-1.277c0-.904-.771-1.723-1.723-1.723-.952 0-1.723.771-1.723 1.723V18M20.026 22h-4.052c-.538 0-.974-.436-.974-.974v-2.052c0-.538.436-.974.974-.974h4.052c.538 0 .974.436.974.974v2.052c0 .538-.436.974-.974.974z" stroke="#323232" stroke-width="1.5" stroke-linecap="round" stroke-linejoin="round"/>
    <path d="M11.536 21C7.374 21 4 19.815 4 18.353V5.647C4 4.185 7.358 3 11.5 3 15.642 3 19 4.185 19 5.647V12" stroke="#323232" stroke-width="1.5" stroke-linecap="round" stroke-linejoin="round"/>
  </g>
</svg>
