<?xml version="1.0" encoding="iso-8859-1"?>
<!-- Generator: Adobe Illustrator 16.0.0, SVG Export Plug-In . SVG Version: 6.00 Build 0)  -->
<!DOCTYPE svg PUBLIC "-//W3C//DTD SVG 1.1//EN" "http://www.w3.org/Graphics/SVG/1.1/DTD/svg11.dtd">
<svg version="1.1" id="Capa_1" xmlns="http://www.w3.org/2000/svg" xmlns:xlink="http://www.w3.org/1999/xlink" x="0px" y="0px"
	 width="562.746px" height="562.746px" viewBox="0 0 562.746 562.746" style="enable-background:new 0 0 562.746 562.746;"
	 xml:space="preserve">
<g>
	<g>
		<path d="M281.373,0C125.974,0,0,125.974,0,281.373c0,155.399,125.974,281.373,281.373,281.373
			c155.399,0,281.373-125.974,281.373-281.373C562.746,125.974,436.772,0,281.373,0z M455.132,325.363L303.014,477.488
			c-11.953,11.952-31.329,11.952-43.275,0L107.608,325.363c-11.952-11.952-7.938-21.64,8.959-21.64h58.073V88.538
			c0-6.763,5.483-12.24,12.24-12.24h188.973c6.757,0,12.24,5.478,12.24,12.24v215.191h58.072
			C463.069,303.729,467.084,313.411,455.132,325.363z"/>
	</g>
</g>
<g>
</g>
<g>
</g>
<g>
</g>
<g>
</g>
<g>
</g>
<g>
</g>
<g>
</g>
<g>
</g>
<g>
</g>
<g>
</g>
<g>
</g>
<g>
</g>
<g>
</g>
<g>
</g>
<g>
</g>
</svg>
