<svg width="24" height="24" viewBox="0 0 24 24" xmlns="http://www.w3.org/2000/svg">
  <g fill="none" fill-rule="evenodd">
    <path d="M10.133 8.793l-2.075-.75c-.462-.167-.953.168-.966.659l-.052 1.933c-.511.63-.809 1.362-.809 2.147 0 2.237 1.612 4.049 3.643 4.191C8.983 18.343 9 19.964 9 19.964v.716c-1.008-.411-2.922-1.368-4.227-3.115C3.701 16.13 3 14.211 3 12.185c0-2.678 1.028-4.792 2.412-6.288C7.239 3.924 9.753 3 12 3s4.761.924 6.588 2.897C19.972 7.393 21 9.507 21 12.185c0 2.027-.701 3.945-1.773 5.38-1.305 1.747-3.219 2.704-4.227 3.115v-.716s.017-1.621-.874-2.991c2.031-.142 3.643-1.954 3.643-4.191 0-.785-.299-1.517-.809-2.147l-.052-1.932c-.013-.491-.504-.826-.966-.659l-2.075.75c-.586-.147-1.213-.23-1.867-.23-.654 0-1.281.083-1.867.229h0z" stroke="#323232" stroke-width="1.5" stroke-linecap="round" stroke-linejoin="round"/>
    <path d="M0 0h24v24H0z"/>
  </g>
</svg>
